.
 
http://www.scenetime.com    -   SceneTime [ We been having it ] !!!


How come you press harder on a remote control when you know the battery is dead? so you better seed to get speed ;)

        Seed back for speed


...................................NFO:.................................................[img]http://img811.imageshack.us/img811/2327/cxchb.jpg[/img]


[color=blue][size=5][b]Road.To.Nowhere.2010.BDRip.XVID.AC3.HQ.Hive-CM8[/b][/size][/color]


[b]Thx Hive

CM8 Doing It Right The First Time :D


Source: Bluray

Video: 720x400 @bitrate 1600 2pass
Audio: English DTS to AC3 5.1 @384
Sample: yes included[/b]


[url]http://www.imdb.com/title/tt1504319/[/url]


General
Complete name                    : Road.To.Nowhere.2010.BDRip.XVID.AC3.HQ.Hive-CM8.avi
Format                           : AVI
Format/Info                      : Audio Video Interleave
File size                        : 1.70 GiB
Duration                         : 2h 1mn
Overall bit rate                 : 2 004 Kbps
Writing application              : Nandub v1.0rc2
Writing library                  : Nandub build 1853/release

Video
ID                               : 0
Format                           : MPEG-4 Visual
Format profile                   : Advanced Simple@L5
Format settings, BVOP            : 1
Format settings, QPel            : Yes
Format settings, GMC             : No warppoints
Format settings, Matrix          : Default (H.263)
Muxing mode                      : Packed bitstream
Codec ID                         : XVID
Codec ID/Hint                    : XviD
Duration                         : 2h 1mn
Bit rate                         : 1 610 Kbps
Width                            : 720 pixels
Height                           : 400 pixels
Display aspect ratio             : 16:9
Frame rate                       : 23.976 fps
Color space                      : YUV
Chroma subsampling               : 4:2:0
Bit depth                        : 8 bits
Scan type                        : Progressive
Compression mode                 : Lossy
Bits/(Pixel*Frame)               : 0.233
Stream size                      : 1.37 GiB (80%)
Writing library                  : XviD 1.2.1 (UTC 2008-12-04)

Audio
ID                               : 1
Format                           : AC-3
Format/Info                      : Audio Coding 3
Mode extension                   : CM (complete main)
Codec ID                         : 2000
Duration                         : 2h 1mn
Bit rate mode                    : Constant
Bit rate                         : 384 Kbps
Channel(s)                       : 6 channels
Channel positions                : Front: L C R, Side: L R, LFE
Sampling rate                    : 48.0 KHz
Bit depth                        : 16 bits
Compression mode                 : Lossy
Stream size                      : 334 MiB (19%)
Alignment                        : Split accross interleaves
Interleave, duration             : 42 ms (1.00 video frame)
Interleave, preload duration     : 500 ms


Plot:
A young filmmaker gets wrapped up in a crime while shooting his new project on location.


Cast:
Shannyn Sossamon
Tygh Runyan       ...     Mitchell Haven
Cliff De Young    ...     Cary Stewart \ Rafe Tachen
Waylon Payne      ...     Bruno Brotherton
Dominique Swain   ...     Nathalie Post


[img]http://img593.imageshack.us/img593/9179/64653181.png[/img]
[img]http://img546.imageshack.us/img546/5937/roadq.png[/img]
[img]http://img835.imageshack.us/img835/1558/roroe.png[/img]
[img]http://img225.imageshack.us/img225/4844/rororo.png[/img]
[img]http://img850.imageshack.us/img850/1449/rorororo.png[/img]
[img]http://img21.imageshack.us/img21/65/rororororo.png[/img]
[img]http://img31.imageshack.us/img31/4567/rorororororo.png[/img]



Greetz

ViSiON,SiC,SANTi,3LT0N,YanKeeS,MAGNET,THC,T0XiC,LKRG,FANTASIA-PLAY,FANTASIA-M,BHRG,WBZ
D2U,IMAGiNE,FLAWL3SS,NOVA,Vik,Rapeseed,SAFC,goldadvance,MEMORY100,scumbag,Hero5,Pinnz
Unevano,KaN1vE,Wayne,cedrict wink,Mr Hive and all P2P groups
Great Work Guys :D

FYS

CM8@hushmail.com